PathFileType	4	(X/Y/Z)	results/motion.trc
DataRate	CameraRate	NumFrames	NumMarkers	Units	OrigDataRate	OrigDataStartFrame	OrigNumFrames
13	13	10	20	mm	13	71	88
Frame#	Time	NUI_SKELETON_POSITION_HIP_CENTER	NUI_SKELETON_POSITION_HIP_RIGHT	NUI_SKELETON_POSITION_HIP_LEFT	NUI_SKELETON_POSITION_KNEE_RIGHT	NUI_SKELETON_POSITION_KNEE_LEFT	NUI_SKELETON_POSITION_ANKLE_RIGHT	NUI_SKELETON_POSITION_ANKLE_LEFT	NUI_SKELETON_POSITION_FOOT_RIGHT	NUI_SKELETON_POSITION_FOOT_LEFT	NUI_SKELETON_POSITION_SPINE	NUI_SKELETON_POSITION_SHOULDER_RIGHT	NUI_SKELETON_POSITION_SHOULDER_LEFT	NUI_SKELETON_POSITION_ELBOW_RIGHT	NUI_SKELETON_POSITION_ELBOW_LEFT	NUI_SKELETON_POSITION_WRIST_RIGHT	NUI_SKELETON_POSITION_WRIST_LEFT	NUI_SKELETON_POSITION_HAND_RIGHT	NUI_SKELETON_POSITION_HAND_LEFT	NUI_SKELETON_POSITION_SHOULDER_CENTER	NUI_SKELETON_POSITION_HEAD
X1	Y1	Z1	X2	Y2	Z2	X3	Y3	Z3	X4	Y4	Z4	X5	Y5	Z5	X6	Y6	Z6	X7	Y7	Z7	X8	Y8	Z8	X9	Y9	Z9	X10	Y10	Z10	X11	Y11	Z11	X12	Y12	Z12	X13	Y13	Z13	X14	Y14	Z14	X15	Y15	Z15	X16	Y16	Z16	X17	Y17	Z17	X18	Y18	Z18	X19	Y19	Z19	X20	Y20	Z20	
71	5.822000	77.390015	728.672445	241.657257	138.189971	643.314898	240.225554	-3.814399	652.189493	242.186546	149.728656	197.099522	382.574797	-98.083377	219.057307	309.870005	128.983229	-155.271471	416.189671	-124.152221	-129.214287	474.159479	148.693353	-233.181655	360.059738	-183.226675	-187.221229	431.732178	90.232104	802.944064	270.559788	280.489236	1059.548378	345.071793	-29.544637	1084.825873	316.519499	389.286131	851.744413	235.755682	-237.044632	995.845437	349.421263	444.284886	825.317681	-65.395355	-371.227264	1079.383373	247.437954	452.122480	849.914670	-105.802298	-370.676905	1094.045162	209.647417	142.285019	1186.901331	284.368515	147.252530	1367.690325	245.477915	
72	5.871000	78.295827	728.075027	259.957790	138.781905	643.230975	254.715919	-3.180578	651.603937	265.446901	149.067968	198.292255	385.193348	-93.724608	219.379321	352.102757	127.342582	-156.366110	394.101143	-119.141594	-126.588643	522.132158	143.512040	-233.600378	334.497929	-178.733438	-182.165384	473.164320	92.739314	802.453637	289.344549	280.599743	1059.340239	350.926638	-28.059617	1084.494591	350.620508	394.121021	856.877685	221.240759	-230.746225	991.000950	404.695272	423.215419	853.498816	-106.796980	-380.785942	1064.760923	317.999363	429.414600	874.671459	-138.941526	-382.667065	1081.178904	277.718782	146.172613	1187.277794	302.290201	143.145859	1368.084431	265.312910	
73	5.955000	73.742956	726.852596	282.293320	135.109782	643.118560	271.360874	-8.246928	650.505602	293.861628	147.268921	199.252218	387.806892	-91.904715	219.237030	391.996384	125.646323	-156.851172	373.495817	-115.107395	-124.352038	563.593864	138.769060	-233.701229	310.464144	-171.281695	-179.708123	516.267538	89.997500	801.359594	311.943293	276.028514	1059.261084	358.278751	-33.011228	1083.777308	389.011383	391.794652	863.531947	201.446772	-230.534658	984.439909	462.127447	398.080796	878.767014	-139.426708	-398.139745	1044.378519	390.747309	400.090188	899.756670	-164.567709	-398.428828	1065.130711	344.551325	142.411917	1187.402010	324.097157	128.091127	1368.282080	290.743113	
74	6.076000	68.368375	725.643754	302.841902	130.309969	642.932832	286.984205	-13.764203	649.444580	319.420338	144.598752	200.039178	389.104843	-90.690419	219.125554	426.861286	123.983681	-157.126606	354.330778	-111.849174	-122.481048	599.325418	134.660870	-233.725309	288.403511	-164.853334	-177.684665	553.038836	86.371660	800.271630	332.609177	269.662917	1059.217691	364.646196	-39.680421	1082.880497	423.962593	391.700119	867.563963	190.535545	-231.217727	978.641152	512.081861	375.373572	900.219679	-163.364649	-412.495792	1027.173042	450.562239	370.770961	922.574639	-184.907675	-413.403332	1050.970554	401.875257	137.379587	1187.415838	343.844414	112.267435	1368.491888	313.629150	
75	6.142000	58.274776	724.501550	328.737497	121.743590	642.817676	308.525085	-23.442462	648.394346	348.478317	141.679347	200.732812	391.256094	-90.880081	219.182327	459.815502	122.557908	-157.263339	336.390495	-109.225824	-120.852590	630.740881	131.098986	-233.641505	268.380404	-159.256577	-175.935507	584.859371	77.100426	799.237251	358.679771	257.618517	1059.594154	375.263691	-57.682380	1080.895662	464.015484	390.420049	871.422410	182.646513	-240.698248	971.301198	561.281204	360.458523	916.156888	-181.047916	-427.574486	1010.004759	499.755621	348.055094	940.641403	-201.185942	-430.285037	1036.434054	449.487448	122.336626	1186.972618	368.868351	87.475091	1366.609454	340.672970	
76	6.175000	48.153520	723.547041	352.283955	113.102674	642.818570	328.404188	-32.981500	647.449613	374.459267	138.482720	201.357678	392.602682	-91.063544	219.181165	488.611937	121.429741	-157.379448	319.555759	-106.907964	-119.404316	658.938646	128.132820	-233.421743	249.913931	-154.179260	-174.466193	612.863064	67.510039	798.360944	382.371426	244.856507	1060.190558	385.359764	-75.408205	1079.212308	499.190807	380.433947	877.175868	183.639765	-251.721352	960.664451	610.548735	338.506907	929.173827	-180.099487	-438.856006	995.391011	543.734550	323.635191	954.124331	-200.902939	-445.760250	1023.142219	489.663839	106.452763	1186.447620	391.617060	63.403368	1365.131855	364.675283	
77	6.257000	37.663817	723.235846	374.724865	104.061365	643.497825	348.086119	-42.555407	646.871269	398.296118	135.713786	201.836973	394.420624	-91.319516	219.161093	514.235258	120.621026	-157.215893	305.774689	-104.686595	-118.082285	684.156656	125.639528	-233.099461	233.383179	-149.414614	-173.231184	637.601852	57.044208	798.085928	405.069590	229.908943	1061.968327	396.928549	-94.742090	1078.467369	531.346083	367.636651	884.630680	192.353725	-263.124406	953.461826	648.284674	317.151457	939.265370	-164.420843	-452.021807	980.574071	578.325510	300.236315	965.929151	-186.064482	-460.743129	1009.920120	523.116350	88.747472	1186.278701	413.575172	39.663166	1364.055634	387.345314	
78	6.324000	26.087582	723.960161	397.395134	94.426066	644.826293	367.549658	-53.238168	647.262633	422.194481	133.497119	202.419132	397.397280	-91.843888	219.427273	537.428141	119.873434	-157.154799	296.726942	-102.403611	-116.957605	706.387043	123.630792	-232.680619	222.564459	-144.733787	-172.349036	659.430027	45.079529	798.778772	428.336620	213.435084	1064.016104	409.141064	-115.705982	1078.949332	561.944723	352.561444	892.562270	205.478668	-276.803374	947.963476	677.961349	299.541026	948.388934	-140.433788	-467.540503	965.586364	601.364374	280.132860	976.129711	-157.200098	-475.649834	996.991813	547.893047	67.651987	1186.910987	437.521458	15.920132	1363.681316	409.218311	
79	6.394000	15.077844	724.849939	418.069363	85.185885	646.330416	385.757685	-63.276082	647.700429	443.528652	131.279081	202.826828	400.270700	-92.310265	219.621688	558.118343	119.668961	-156.851947	290.139914	-100.104243	-115.992844	725.364208	123.062640	-231.893957	215.560198	-139.925554	-171.850085	678.522825	33.423096	799.653530	449.745893	197.138995	1066.406369	421.523333	-135.469437	1079.397321	588.376522	337.106377	901.077867	223.984957	-293.485641	939.686477	702.707052	283.026367	955.118179	-107.316971	-481.802821	952.423155	616.500854	263.265014	984.087944	-125.824928	-490.075409	985.174298	563.450813	47.575504	1187.762260	459.211588	-6.953731	1364.654779	430.482388	
80	6.475000	4.621655	725.898743	437.008858	76.448768	647.908807	402.587414	-72.715744	648.244917	462.782621	129.060984	202.992246	403.317213	-92.813149	219.785795	576.591492	119.967550	-155.978739	287.365913	-97.783729	-115.193009	740.745068	123.363525	-230.948329	211.929083	-135.007977	-171.726286	694.622993	22.042513	800.679207	469.571114	181.219250	1068.891525	434.124947	-153.962955	1080.027580	611.323118	322.621197	905.615985	242.375851	-309.090436	934.818029	721.703053	269.600838	961.140692	-73.867083	-496.607572	938.947797	622.402906	249.422818	990.210235	-92.730045	-503.828645	974.037588	571.989775	27.808070	1188.669920	479.338408	-27.187899	1365.393400	448.943853	
